<mxfile host="app.diagrams.net" modified="2023-09-16T19:22:17.917Z" agent="Mozilla/5.0 (Macintosh; Intel Mac OS X 10_15_7) AppleWebKit/537.36 (KHTML, like Gecko) Chrome/116.0.0.0 Safari/537.36" version="21.7.5" etag="b4DON2LAgM3XzjOQVnx1" type="github">
  <diagram name="페이지-1" id="-gBPONZTLgPM9eOoMXto">
    <mxGraphModel>
      <root>
        <mxCell id="0" />
        <mxCell id="1" parent="0" />
      </root>
    </mxGraphModel>
  </diagram>
</mxfile>
